<svg width="19" height="19" viewBox="0 0 16 16" version="1.1">
    <path fill-rule="evenodd" clip-rule="evenodd" d="M8 .5c-3.866 0-7 3.134-7 7a6.995 6.995 0 0 0 4.98 6.655c.365.067.498-.158.498-.354v-1.232c-2.03.443-2.463-1.023-2.463-1.023-.332-.843-.811-1.066-.811-1.066-.662-.453.05-.444.05-.444.732.052 1.117.75 1.117.75.65 1.113 1.706.791 2.12.605.065-.467.253-.79.46-.97-1.612-.183-3.305-.806-3.305-3.583 0-.793.283-1.442.75-1.948-.075-.183-.325-.92.07-1.917 0 0 .607-.195 1.988.74A6.872 6.872 0 0 1 8 6.57c.61.005 1.227.083 1.81.244 1.38-.945 1.987-.743 1.987-.743.395.996.145 1.733.07 1.917.466.506.748 1.154.748 1.948 0 2.785-1.694 3.397-3.304 3.577.26.224.49.665.49 1.345v2.001c0 .197.132.422.5.354A7 7 0 1 0 8 .5z" fill="#000000"/>
</svg>
