<svg width="19" height="18" viewBox="0 0 17 16" fill="none" xmlns="http://www.w3.org/2000/svg">
    <path d="M17 8.18371C17 7.63989 16.9551 7.09314 16.8591 6.55814H9.16046V9.63879H13.5691C13.3862 10.6324 12.7983 11.5113 11.9376 12.0698V14.0687H14.5678C16.1123 12.6754 17 10.6177 17 8.18371Z" fill="#4285F4"></path>
    <path d="M9.16042 16C11.3617 16 13.2182 15.2916 14.5707 14.0687L11.9406 12.0698C11.2088 12.5578 10.2641 12.8341 9.16342 12.8341C7.03409 12.8341 5.22865 11.4261 4.58085 9.53299H1.8667V11.5936C3.25227 14.2951 6.07438 16 9.16042 16V16Z" fill="#34A853"></path>
    <path d="M4.57786 9.53298C4.23596 8.53941 4.23596 7.46353 4.57786 6.46996V4.40933H1.8667C0.709065 6.66985 0.709065 9.33309 1.8667 11.5936L4.57786 9.53298V9.53298Z" fill="#FBBC04"></path>
    <path d="M9.16042 3.16589C10.3241 3.14825 11.4487 3.57743 12.2914 4.36523L14.6217 2.0812C13.1462 0.72312 11.1878 -0.0235267 9.16042 -1.02057e-05C6.07438 -1.02057e-05 3.25227 1.70493 1.8667 4.40932L4.57785 6.46995C5.22265 4.57394 7.03109 3.16589 9.16042 3.16589V3.16589Z" fill="#EA4335"></path>
</svg>
